# xmcd CD database file
#
# Track frame offsets:
#	182
#	13405
#	28472
#	39347
#	56927
#	72957
#	81987
#	93195
#	103885
#	119687
#	132160
#	142360
#	160782
#	191187
#	201707
#	217862
#
# Disc length: 3077 seconds
#
# Revision: 0
# Processed by: cddbd v1.5.2PL0 Copyright (c) Steve Scherf et al.
# Submitted via: CDex 1.51
#
DISCID=030c0310
DTITLE=Riomambo Band - Mambomania
DYEAR=1993
DGENRE=Salsa
TTITLE0=Johnny's Mambo (from Dirty Dancing)
TTITLE1=Mambo Margarita
TTITLE2=Patricia
TTITLE3=Amamnte Latino
TTITLE4=In A Little Spanish Town
TTITLE5=Mambo Cinque
TTITLE6=De Todo Un Poco (from Dirty Dancing)
TTITLE7=El Abrillantador
TTITLE8=Estrellita
TTITLE9=Tiempo De Mambo
TTITLE10=Mambo Paradiso
TTITLE11=La Bailarina
TTITLE12=mambo De La Luz
TTITLE13=Ronny's mambo
TTITLE14=Carmelita
TTITLE15=Mambo Nuevo
EXTD=YEAR: 1993
EXTT0=
EXTT1=
EXTT2=
EXTT3=
EXTT4=
EXTT5=
EXTT6=
EXTT7=
EXTT8=
EXTT9=
EXTT10=
EXTT11=
EXTT12=
EXTT13=
EXTT14=
EXTT15=
PLAYORDER=
